<svg width="74" height="62" viewBox="0 0 74 62" fill="none" xmlns="http://www.w3.org/2000/svg">
<g clip-path="url(#clip0_16_891)">
<path d="M74 12.6627H0V61.7955H74V12.6627Z" fill="#003399"/>
<path d="M37 18.1219L36.1531 20.7179L37.4564 21.1397L37 18.1219Z" fill="#FFCC00"/>
<path d="M37 18.1219L37.8469 20.7179L36.5436 21.1397L37 18.1219Z" fill="#FFCC00"/>
<path d="M39.6053 20.0107L36.8659 20.008L36.8672 21.3702L39.6053 20.0107Z" fill="#FFCC00"/>
<path d="M39.6066 20.0094L37.3905 21.6125L36.5838 20.507L39.6066 20.0094Z" fill="#FFCC00"/>
<path d="M38.611 23.0606L37.763 20.4638L36.4607 20.8848L38.611 23.0606Z" fill="#FFCC00"/>
<path d="M38.6117 23.0598L36.3937 21.4546L37.1984 20.3513L38.6117 23.0598Z" fill="#FFCC00"/>
<path d="M34.3947 20.0107L37.1341 20.008L37.1328 21.3702L34.3947 20.0107Z" fill="#FFCC00"/>
<path d="M34.3934 20.0094L36.6095 21.6125L37.4162 20.507L34.3934 20.0094Z" fill="#FFCC00"/>
<path d="M35.389 23.0606L36.237 20.4638L37.5393 20.8848L35.389 23.0606Z" fill="#FFCC00"/>
<path d="M35.3883 23.0598L37.6063 21.4546L36.8016 20.3513L35.3883 23.0598Z" fill="#FFCC00"/>
<path d="M37 50.8771L36.1531 53.4731L37.4564 53.8949L37 50.8771Z" fill="#FFCC00"/>
<path d="M37 50.8771L37.8469 53.4731L36.5436 53.8949L37 50.8771Z" fill="#FFCC00"/>
<path d="M39.6053 52.7659L36.8659 52.7632L36.8672 54.1254L39.6053 52.7659Z" fill="#FFCC00"/>
<path d="M39.6066 52.7646L37.3905 54.3677L36.5838 53.2622L39.6066 52.7646Z" fill="#FFCC00"/>
<path d="M38.611 55.8158L37.763 53.219L36.4607 53.64L38.611 55.8158Z" fill="#FFCC00"/>
<path d="M38.6117 55.815L36.3937 54.2098L37.1984 53.1065L38.6117 55.815Z" fill="#FFCC00"/>
<path d="M34.3947 52.7659L37.1341 52.7632L37.1328 54.1254L34.3947 52.7659Z" fill="#FFCC00"/>
<path d="M34.3934 52.7646L36.6095 54.3677L37.4162 53.2622L34.3934 52.7646Z" fill="#FFCC00"/>
<path d="M35.389 55.8158L36.237 53.219L37.5393 53.64L35.389 55.8158Z" fill="#FFCC00"/>
<path d="M35.3883 55.815L37.6063 54.2098L36.8016 53.1065L35.3883 55.815Z" fill="#FFCC00"/>
<path d="M20.5556 34.4995L19.7086 37.0955L21.0119 37.5173L20.5556 34.4995Z" fill="#FFCC00"/>
<path d="M20.5556 34.4995L21.4025 37.0955L20.0992 37.5173L20.5556 34.4995Z" fill="#FFCC00"/>
<path d="M23.1608 36.3883L20.4214 36.3856L20.4228 37.7478L23.1608 36.3883Z" fill="#FFCC00"/>
<path d="M23.1622 36.387L20.9461 37.9901L20.1394 36.8846L23.1622 36.387Z" fill="#FFCC00"/>
<path d="M22.1665 39.4382L21.3185 36.8414L20.0163 37.2624L22.1665 39.4382Z" fill="#FFCC00"/>
<path d="M22.1673 39.4374L19.9492 37.8322L20.754 36.7289L22.1673 39.4374Z" fill="#FFCC00"/>
<path d="M17.9503 36.3883L20.6897 36.3856L20.6884 37.7478L17.9503 36.3883Z" fill="#FFCC00"/>
<path d="M17.949 36.387L20.1651 37.9901L20.9717 36.8846L17.949 36.387Z" fill="#FFCC00"/>
<path d="M18.9446 39.4382L19.7926 36.8414L21.0948 37.2624L18.9446 39.4382Z" fill="#FFCC00"/>
<path d="M18.9438 39.4374L21.1619 37.8322L20.3572 36.7289L18.9438 39.4374Z" fill="#FFCC00"/>
<path d="M27.166 25.254L29.3841 23.6487L28.5794 22.5454L27.166 25.254Z" fill="#FFCC00"/>
<path d="M27.1668 25.2548L28.0148 22.658L29.3171 23.079L27.1668 25.2548Z" fill="#FFCC00"/>
<path d="M26.1712 22.2029L28.3878 23.8066L29.194 22.7018L26.1712 22.2029Z" fill="#FFCC00"/>
<path d="M26.1719 22.2036L28.9119 22.2022L28.9112 23.5656L26.1719 22.2036Z" fill="#FFCC00"/>
<path d="M28.7789 20.3161L27.9308 22.9129L29.233 23.3339L28.7789 20.3161Z" fill="#FFCC00"/>
<path d="M28.7789 20.3161L29.6247 22.9113L28.3203 23.3339L28.7789 20.3161Z" fill="#FFCC00"/>
<path d="M30.3881 25.254L28.1715 23.6504L28.9776 22.5454L30.3881 25.254Z" fill="#FFCC00"/>
<path d="M30.3888 25.2533L29.5428 22.658L28.2385 23.0805L30.3888 25.2533Z" fill="#FFCC00"/>
<path d="M31.3844 22.2016L29.1666 23.8066L28.3616 22.7031L31.3844 22.2016Z" fill="#FFCC00"/>
<path d="M31.3844 22.2022L28.6442 22.2034L28.6436 23.567L31.3844 22.2022Z" fill="#FFCC00"/>
<path d="M24.3697 31.2495L23.5216 28.6527L22.2194 29.0737L24.3697 31.2495Z" fill="#FFCC00"/>
<path d="M24.3704 31.2487L22.1524 29.6435L22.9571 28.5402L24.3704 31.2487Z" fill="#FFCC00"/>
<path d="M21.1484 31.2487L23.365 29.6451L22.5588 28.5402L21.1484 31.2487Z" fill="#FFCC00"/>
<path d="M21.1477 31.248L21.9937 28.6527L23.298 29.0752L21.1477 31.248Z" fill="#FFCC00"/>
<path d="M20.1521 28.1964L22.3699 29.8014L23.1749 28.6978L20.1521 28.1964Z" fill="#FFCC00"/>
<path d="M20.1521 28.1969L22.8923 28.1981L22.8928 29.5617L20.1521 28.1969Z" fill="#FFCC00"/>
<path d="M25.3653 28.1977L23.1486 29.8014L22.3425 28.6965L25.3653 28.1977Z" fill="#FFCC00"/>
<path d="M25.3646 28.1984L22.6245 28.1969L22.6253 29.5603L25.3646 28.1984Z" fill="#FFCC00"/>
<path d="M22.7576 26.3108L23.6056 28.9076L22.3034 29.3286L22.7576 26.3108Z" fill="#FFCC00"/>
<path d="M22.7576 26.3108L21.9117 28.9061L23.2161 29.3286L22.7576 26.3108Z" fill="#FFCC00"/>
<path d="M25.3634 44.5782L22.6246 44.5744L22.6264 45.9355L25.3634 44.5782Z" fill="#FFCC00"/>
<path d="M25.3653 44.5763L23.1497 46.1789L22.3425 45.0728L25.3653 44.5763Z" fill="#FFCC00"/>
<path d="M24.3697 47.6282L23.5199 45.0302L22.2194 45.45L24.3697 47.6282Z" fill="#FFCC00"/>
<path d="M24.3717 47.6262L22.1524 46.0196L22.9558 44.9177L24.3717 47.6262Z" fill="#FFCC00"/>
<path d="M21.149 47.6262L23.365 46.0232L22.5583 44.9177L21.149 47.6262Z" fill="#FFCC00"/>
<path d="M21.1477 47.625L21.9929 45.0302L23.298 45.4532L21.1477 47.625Z" fill="#FFCC00"/>
<path d="M22.7563 42.6883L23.6056 45.286L22.3047 45.7061L22.7563 42.6883Z" fill="#FFCC00"/>
<path d="M22.7563 42.6883L21.9118 45.2826L23.2175 45.7061L22.7563 42.6883Z" fill="#FFCC00"/>
<path d="M20.1521 44.5744L22.8921 44.5759L22.8928 45.9392L20.1521 44.5744Z" fill="#FFCC00"/>
<path d="M20.1521 44.5737L22.3701 46.1789L23.1749 45.0754L20.1521 44.5737Z" fill="#FFCC00"/>
<path d="M31.3825 50.5728L28.6436 50.569L28.6455 51.9301L31.3825 50.5728Z" fill="#FFCC00"/>
<path d="M31.3844 50.5709L29.1688 52.1735L28.3616 51.0674L31.3844 50.5709Z" fill="#FFCC00"/>
<path d="M30.3887 53.6228L29.539 51.0248L28.2385 51.4446L30.3887 53.6228Z" fill="#FFCC00"/>
<path d="M30.3908 53.6208L28.1714 52.0142L28.9749 50.9123L30.3908 53.6208Z" fill="#FFCC00"/>
<path d="M27.1681 53.6208L29.3841 52.0178L28.5774 50.9123L27.1681 53.6208Z" fill="#FFCC00"/>
<path d="M27.1668 53.6196L28.012 51.0248L29.3171 51.4478L27.1668 53.6196Z" fill="#FFCC00"/>
<path d="M28.7754 48.6829L29.6247 51.2806L28.3238 51.7007L28.7754 48.6829Z" fill="#FFCC00"/>
<path d="M28.7754 48.6829L27.9308 51.2773L29.2365 51.7007L28.7754 48.6829Z" fill="#FFCC00"/>
<path d="M26.1712 50.5691L28.9112 50.5705L28.9119 51.9339L26.1712 50.5691Z" fill="#FFCC00"/>
<path d="M26.1712 50.5683L28.3892 52.1735L29.194 51.0701L26.1712 50.5683Z" fill="#FFCC00"/>
<path d="M53.4445 34.4995L54.2914 37.0955L52.9881 37.5173L53.4445 34.4995Z" fill="#FFCC00"/>
<path d="M53.4445 34.4995L52.5975 37.0955L53.9008 37.5173L53.4445 34.4995Z" fill="#FFCC00"/>
<path d="M50.8392 36.3883L53.5786 36.3856L53.5773 37.7478L50.8392 36.3883Z" fill="#FFCC00"/>
<path d="M50.8379 36.387L53.054 37.9901L53.8606 36.8846L50.8379 36.387Z" fill="#FFCC00"/>
<path d="M51.8335 39.4382L52.6815 36.8414L53.9837 37.2624L51.8335 39.4382Z" fill="#FFCC00"/>
<path d="M51.8327 39.4374L54.0508 37.8322L53.2461 36.7289L51.8327 39.4374Z" fill="#FFCC00"/>
<path d="M56.0497 36.3883L53.3103 36.3856L53.3116 37.7478L56.0497 36.3883Z" fill="#FFCC00"/>
<path d="M56.0511 36.387L53.835 37.9901L53.0283 36.8846L56.0511 36.387Z" fill="#FFCC00"/>
<path d="M55.0554 39.4382L54.2074 36.8414L52.9052 37.2624L55.0554 39.4382Z" fill="#FFCC00"/>
<path d="M55.0562 39.4374L52.8381 37.8322L53.6428 36.7289L55.0562 39.4374Z" fill="#FFCC00"/>
<path d="M46.8339 25.254L44.6159 23.6487L45.4206 22.5454L46.8339 25.254Z" fill="#FFCC00"/>
<path d="M46.8332 25.2547L45.9851 22.658L44.6829 23.0789L46.8332 25.2547Z" fill="#FFCC00"/>
<path d="M47.8288 22.2029L45.6121 23.8066L44.806 22.7017L47.8288 22.2029Z" fill="#FFCC00"/>
<path d="M47.8281 22.2036L45.0881 22.2022L45.0888 23.5656L47.8281 22.2036Z" fill="#FFCC00"/>
<path d="M45.2211 20.3161L46.0691 22.9128L44.7669 23.3338L45.2211 20.3161Z" fill="#FFCC00"/>
<path d="M45.2211 20.3161L44.3753 22.9113L45.6797 23.3338L45.2211 20.3161Z" fill="#FFCC00"/>
<path d="M43.6119 25.254L45.8285 23.6503L45.0223 22.5454L43.6119 25.254Z" fill="#FFCC00"/>
<path d="M43.6112 25.2533L44.4572 22.6579L45.7615 23.0804L43.6112 25.2533Z" fill="#FFCC00"/>
<path d="M42.6156 22.2016L44.8334 23.8066L45.6384 22.703L42.6156 22.2016Z" fill="#FFCC00"/>
<path d="M42.6156 22.2022L45.3558 22.2033L45.3563 23.567L42.6156 22.2022Z" fill="#FFCC00"/>
<path d="M49.6303 31.2494L50.4784 28.6526L51.7806 29.0736L49.6303 31.2494Z" fill="#FFCC00"/>
<path d="M49.6296 31.2486L51.8476 29.6433L51.0429 28.5401L49.6296 31.2486Z" fill="#FFCC00"/>
<path d="M52.8516 31.2486L50.635 29.645L51.4412 28.5401L52.8516 31.2486Z" fill="#FFCC00"/>
<path d="M52.8523 31.2479L52.0063 28.6526L50.702 29.0751L52.8523 31.2479Z" fill="#FFCC00"/>
<path d="M53.8479 28.1963L51.6301 29.8013L50.8251 28.6977L53.8479 28.1963Z" fill="#FFCC00"/>
<path d="M53.8479 28.1968L51.1077 28.198L51.1072 29.5616L53.8479 28.1968Z" fill="#FFCC00"/>
<path d="M48.6347 28.1976L50.8514 29.8013L51.6575 28.6964L48.6347 28.1976Z" fill="#FFCC00"/>
<path d="M48.6354 28.1983L51.3755 28.1968L51.3747 29.5602L48.6354 28.1983Z" fill="#FFCC00"/>
<path d="M51.2424 26.3107L50.3944 28.9075L51.6966 29.3285L51.2424 26.3107Z" fill="#FFCC00"/>
<path d="M51.2424 26.3107L52.0883 28.906L50.7839 29.3285L51.2424 26.3107Z" fill="#FFCC00"/>
<path d="M48.6366 44.5782L51.3754 44.5744L51.3736 45.9355L48.6366 44.5782Z" fill="#FFCC00"/>
<path d="M48.6347 44.5763L50.8503 46.1789L51.6575 45.0728L48.6347 44.5763Z" fill="#FFCC00"/>
<path d="M49.6303 47.6282L50.4801 45.0302L51.7806 45.45L49.6303 47.6282Z" fill="#FFCC00"/>
<path d="M49.6283 47.6262L51.8476 46.0196L51.0442 44.9177L49.6283 47.6262Z" fill="#FFCC00"/>
<path d="M52.851 47.6262L50.635 46.0232L51.4417 44.9177L52.851 47.6262Z" fill="#FFCC00"/>
<path d="M52.8523 47.625L52.0071 45.0302L50.702 45.4532L52.8523 47.625Z" fill="#FFCC00"/>
<path d="M51.2437 42.6883L50.3944 45.286L51.6953 45.7061L51.2437 42.6883Z" fill="#FFCC00"/>
<path d="M51.2437 42.6883L52.0882 45.2826L50.7825 45.7061L51.2437 42.6883Z" fill="#FFCC00"/>
<path d="M53.8479 44.5744L51.1079 44.5759L51.1072 45.9392L53.8479 44.5744Z" fill="#FFCC00"/>
<path d="M53.8479 44.5737L51.6299 46.1788L50.8251 45.0754L53.8479 44.5737Z" fill="#FFCC00"/>
<path d="M42.6175 50.5728L45.3564 50.5691L45.3545 51.9301L42.6175 50.5728Z" fill="#FFCC00"/>
<path d="M42.6156 50.5709L44.8312 52.1735L45.6384 51.0675L42.6156 50.5709Z" fill="#FFCC00"/>
<path d="M43.6113 53.6228L44.461 51.0248L45.7615 51.4446L43.6113 53.6228Z" fill="#FFCC00"/>
<path d="M43.6093 53.6208L45.8286 52.0142L45.0251 50.9123L43.6093 53.6208Z" fill="#FFCC00"/>
<path d="M46.832 53.6208L44.6159 52.0178L45.4226 50.9123L46.832 53.6208Z" fill="#FFCC00"/>
<path d="M46.8332 53.6196L45.988 51.0248L44.683 51.4478L46.8332 53.6196Z" fill="#FFCC00"/>
<path d="M45.2246 48.683L44.3753 51.2806L45.6762 51.7007L45.2246 48.683Z" fill="#FFCC00"/>
<path d="M45.2246 48.683L46.0692 51.2773L44.7635 51.7007L45.2246 48.683Z" fill="#FFCC00"/>
<path d="M47.8288 50.5691L45.0888 50.5705L45.0881 51.9339L47.8288 50.5691Z" fill="#FFCC00"/>
<path d="M47.8288 50.5683L45.6108 52.1735L44.806 51.0701L47.8288 50.5683Z" fill="#FFCC00"/>
</g>
<path d="M10.6731 0.289619C10.7569 0.119255 10.9413 0 11.1258 0H14.5966C14.8984 0 15.0996 0.204437 15.0996 0.511092V11.4144C15.0996 11.721 14.8984 11.9255 14.5966 11.9255H12.0815C11.7797 11.9255 11.5785 11.721 11.5785 11.4144V5.51979L9.31493 11.6018C9.24786 11.7892 9.06342 11.9255 8.84545 11.9255H6.51483C6.29686 11.9255 6.11242 11.7892 6.04535 11.6018L3.7818 5.51979V11.4144C3.7818 11.721 3.58059 11.9255 3.27879 11.9255H0.763727C0.46192 11.9255 0.260715 11.721 0.260715 11.4144V0.511092C0.260715 0.204437 0.46192 0 0.763727 0H4.23451C4.41895 0 4.60338 0.119255 4.68722 0.306655L7.67176 6.91677L10.6731 0.289619Z" fill="#0B101F"/>
<path d="M26.3729 11.6188L25.4004 9.26779H20.4039L19.4314 11.6188C19.3475 11.8062 19.1631 11.9255 18.9619 11.9255H16.2121C15.7426 11.9255 15.5582 11.6358 15.7426 11.2099L20.4039 0.306655C20.4877 0.119255 20.6721 0 20.8733 0H24.931C25.1322 0 25.3166 0.119255 25.4004 0.306655L30.0617 11.2099C30.2461 11.6358 30.0617 11.9255 29.5922 11.9255H26.8424C26.6412 11.9255 26.4568 11.8062 26.3729 11.6188ZM22.9021 3.20284L21.6949 6.11606H24.1094L22.9021 3.20284Z" fill="#0B101F"/>
<path d="M35.5554 11.9255H31.1959C30.8941 11.9255 30.6929 11.721 30.6929 11.4144V0.511092C30.6929 0.204437 30.8941 0 31.1959 0H35.5554C39.7136 0 42.0778 1.95918 42.0778 5.97977C42.0778 9.98332 39.7304 11.9255 35.5554 11.9255ZM34.214 8.77373H35.22C37.383 8.77373 38.4226 7.90488 38.4226 5.96273C38.4226 4.02058 37.383 3.15173 35.22 3.15173H34.214V8.77373Z" fill="#0B101F"/>
<path d="M42.7488 0.511092C42.7488 0.204437 42.9501 0 43.2519 0H52.0043C52.3061 0 52.5073 0.204437 52.5073 0.511092V2.64064C52.5073 2.94729 52.3061 3.15173 52.0043 3.15173H46.2699V4.56575H50.9982C51.3 4.56575 51.5013 4.77019 51.5013 5.07684V6.86566C51.5013 7.17231 51.3 7.37675 50.9982 7.37675H46.2699V8.77373H52.0043C52.3061 8.77373 52.5073 8.97817 52.5073 9.28482V11.4144C52.5073 11.721 52.3061 11.9255 52.0043 11.9255H43.2519C42.9501 11.9255 42.7488 11.721 42.7488 11.4144V0.511092Z" fill="#0B101F"/>
<path d="M61.0485 11.4144C61.0485 11.721 60.8473 11.9255 60.5455 11.9255H58.0304C57.7286 11.9255 57.5274 11.721 57.5274 11.4144V0.511092C57.5274 0.204437 57.7286 0 58.0304 0H60.5455C60.8473 0 61.0485 0.204437 61.0485 0.511092V11.4144Z" fill="#0B101F"/>
<path d="M65.7361 11.4144C65.7361 11.721 65.5349 11.9255 65.2331 11.9255H62.718C62.4162 11.9255 62.215 11.721 62.215 11.4144V0.511092C62.215 0.204437 62.4162 0 62.718 0H65.7529C65.9205 0 66.0882 0.0851818 66.172 0.221473L70.28 6.52493V0.511092C70.28 0.204437 70.4812 0 70.783 0H73.298C73.5998 0 73.8011 0.204437 73.8011 0.511092V11.4144C73.8011 11.721 73.5998 11.9255 73.298 11.9255H70.3638C70.1961 11.9255 70.0285 11.8403 69.9446 11.704L65.7361 5.33239V11.4144Z" fill="#0B101F"/>
<defs>
<clipPath id="clip0_16_891">
<rect width="74" height="49.1328" fill="white" transform="translate(0 12.6627)"/>
</clipPath>
</defs>
</svg>
