<svg width="121" height="34" viewBox="0 0 121 34" fill="none" xmlns="http://www.w3.org/2000/svg">
<path d="M44.2481 1.72391C44.2481 0.771822 45.0195 0 45.971 0H47.1478C48.0993 0 48.8707 0.771823 48.8707 1.72392V12.9357C48.8707 13.8878 48.0993 14.6596 47.1478 14.6596H45.971C45.0195 14.6596 44.2481 13.8878 44.2481 12.9357V1.72391Z" fill="#0B101F"/>
<path d="M55.836 0C57.8391 0 59.4741 0.188604 60.741 0.565811C62.0251 0.943018 63.018 1.65457 63.72 2.70046C64.4391 3.74635 64.7986 5.2466 64.7986 7.20122C64.7986 9.293 64.4219 10.8876 63.6686 11.9849C62.9153 13.0651 61.9052 13.7852 60.6383 14.1453C59.3714 14.4882 57.7706 14.6596 55.836 14.6596H52.4227C51.4712 14.6596 50.6998 13.8878 50.6998 12.9357V1.72391C50.6998 0.771822 51.4712 0 52.4227 0H55.836ZM59.2772 11.1619C59.4827 10.9561 59.6282 10.4246 59.7138 9.56734C59.7994 8.71005 59.8422 7.92134 59.8422 7.20122C59.8422 6.2925 59.7737 5.57237 59.6367 5.04085C59.5169 4.49219 59.2943 4.05497 58.969 3.7292C58.4554 3.16339 57.5737 2.88049 56.3239 2.88049C55.7579 2.88049 55.3224 3.36925 55.3224 3.93562V10.107C55.3224 10.8845 55.9064 11.522 56.6835 11.522C57.3169 11.522 57.8733 11.4962 58.3527 11.4448C58.8492 11.3762 59.1574 11.2819 59.2772 11.1619Z" fill="#0B101F"/>
<path d="M66.0289 1.72391C66.0289 0.771822 66.8002 0 67.7517 0H68.9286C69.8801 0 70.6514 0.771823 70.6514 1.72392V9.54085C70.6514 10.4929 71.4227 11.2648 72.3742 11.2648H74.9386C75.8755 11.2648 76.635 12.0247 76.635 12.9622C76.635 13.8997 75.8755 14.6596 74.9386 14.6596H67.7517C66.8002 14.6596 66.0289 13.8878 66.0289 12.9357V1.72391Z" fill="#0B101F"/>
<path d="M77.3948 1.72391C77.3948 0.771822 78.1662 0 79.1177 0H86.5102C87.3619 0 88.0523 0.690878 88.0523 1.54312C88.0523 2.39536 87.3619 3.08624 86.5102 3.08624H83.3539C82.6157 3.08624 82.0174 3.685 82.0174 4.42361C82.0174 5.16222 82.6157 5.76098 83.3539 5.76098H85.7142C86.4807 5.76098 87.1022 6.38277 87.1022 7.14978C87.1022 7.9168 86.4807 8.53859 85.7142 8.53859H83.5081C82.6848 8.53859 82.0174 9.20644 82.0174 10.0303C82.0174 10.8541 82.6848 11.522 83.5081 11.522H86.4588C87.3247 11.522 88.0267 12.2243 88.0267 13.0908C88.0267 13.9572 87.3247 14.6596 86.4588 14.6596H79.1177C78.1662 14.6596 77.3948 13.8878 77.3948 12.9357V1.72391Z" fill="#0B101F"/>
<path d="M44.1711 19.9413C44.1711 18.9892 44.9424 18.2174 45.8939 18.2174H53.081C53.9611 18.2174 54.6745 18.9313 54.6745 19.8119C54.6745 20.6926 53.9611 21.4065 53.081 21.4065H50.2458C49.4438 21.4065 48.7936 22.0571 48.7936 22.8596C48.7936 23.6621 49.4438 24.3127 50.2458 24.3127H52.2465C53.0201 24.3127 53.6473 24.9402 53.6473 25.7144C53.6473 26.4885 53.0201 27.116 52.2465 27.116H50.5165C49.565 27.116 48.7936 27.8878 48.7936 28.8399V31.1531C48.7936 32.1052 48.0223 32.877 47.0708 32.877H45.8939C44.9424 32.877 44.1711 32.1052 44.1711 31.1531V19.9413Z" fill="#0B101F"/>
<path d="M62.6041 33.2113C60.0531 33.2113 58.1356 32.6112 56.8516 31.411C55.5847 30.1937 54.9512 28.2476 54.9512 25.5729C54.9512 22.9496 55.6531 21.0379 57.057 19.8376C58.4609 18.6374 60.3185 18.0373 62.6298 18.0373C67.492 18.0373 69.9231 20.4635 69.9231 25.3157C69.9231 27.7676 69.3239 29.6965 68.1255 31.1024C66.9441 32.5084 65.1037 33.2113 62.6041 33.2113ZM62.5014 30.1765C62.9807 30.1765 63.3831 30.0994 63.7084 29.9451C64.0336 29.7736 64.2905 29.4821 64.4788 29.0706C64.8383 28.3677 65.0181 27.2189 65.0181 25.6243C65.0181 24.0641 64.8383 22.9325 64.4788 22.2295C64.1192 21.5094 63.4601 21.1322 62.5014 21.0979C62.1418 21.0979 61.7652 21.1407 61.3714 21.2265C60.9948 21.295 60.7551 21.3979 60.6523 21.5351C60.4469 21.7751 60.2842 22.2895 60.1644 23.0782C60.0617 23.8498 60.0103 24.6985 60.0103 25.6243C60.0103 27.0646 60.1473 28.1191 60.4212 28.7877C60.6095 29.285 60.8749 29.645 61.2173 29.8679C61.5597 30.0737 61.9877 30.1765 62.5014 30.1765Z" fill="#0B101F"/>
<path d="M83.9629 30.7186C84.2471 31.8107 83.4235 32.877 82.2957 32.877H81.0347C80.2356 32.877 79.5413 32.3272 79.3579 31.5489L78.7978 29.1735C78.7636 29.0364 78.7037 28.8049 78.6181 28.4791C78.5496 28.1362 78.464 27.8876 78.3613 27.7333C78.3065 27.6419 78.2396 27.5676 78.1606 27.5103C78.0198 27.4083 77.8365 27.4024 77.6626 27.4069C77.6235 27.4079 77.5832 27.4089 77.5418 27.4098C76.5905 27.4309 75.8189 28.1965 75.8189 29.1486V31.1531C75.8189 32.1052 75.0475 32.877 74.096 32.877H72.9192C71.9677 32.877 71.1963 32.1052 71.1963 31.1531V19.9463C71.1963 19.0439 71.8919 18.2921 72.7923 18.2408C74.2697 18.1566 75.6723 18.1145 77.0002 18.1145C78.6266 18.1145 79.9449 18.2517 80.955 18.526C81.9651 18.7832 82.7184 19.2375 83.2149 19.8891C83.7285 20.5235 83.9854 21.3979 83.9854 22.5124C83.9854 23.5583 83.7457 24.3813 83.2663 24.9814C82.7984 25.5504 82.0532 25.8989 81.0307 26.0268C80.9877 26.0322 80.955 26.0686 80.955 26.112C80.955 26.1562 80.9889 26.1929 81.0329 26.1977C81.5974 26.2591 82.0679 26.4537 82.4445 26.7817C82.8554 27.1075 83.1293 27.5275 83.2663 28.0419L83.9629 30.7186ZM75.8189 23.6184C75.8189 24.1308 76.2056 24.5442 76.7177 24.5442C78.036 24.5442 78.8064 24.4327 79.029 24.2098C79.2344 24.0041 79.3371 23.524 79.3371 22.7696C79.3371 22.0666 79.1488 21.5865 78.7721 21.3293C78.4126 21.0721 77.8134 20.9435 76.9745 20.9435C76.3248 20.9435 75.8189 21.5025 75.8189 22.1526V23.6184Z" fill="#0B101F"/>
<path d="M85.1944 19.9413C85.1944 18.9892 85.9657 18.2174 86.9172 18.2174H94.3097C95.1614 18.2174 95.8519 18.9083 95.8519 19.7605C95.8519 20.6127 95.1614 21.3036 94.3097 21.3036H91.1534C90.4153 21.3036 89.8169 21.9024 89.8169 22.641C89.8169 23.3796 90.4153 23.9783 91.1534 23.9783H93.5137C94.2803 23.9783 94.9017 24.6001 94.9017 25.3672C94.9017 26.1342 94.2803 26.756 93.5137 26.756H91.3076C90.4843 26.756 89.8169 27.4238 89.8169 28.2476C89.8169 29.0715 90.4843 29.7393 91.3076 29.7393H94.2583C95.1242 29.7393 95.8262 30.4417 95.8262 31.3082C95.8262 32.1746 95.1242 32.877 94.2583 32.877H86.9172C85.9657 32.877 85.1944 32.1052 85.1944 31.1531V19.9413Z" fill="#0B101F"/>
<path d="M101.253 22.178C101.253 22.5381 101.433 22.821 101.793 23.0268C102.169 23.2325 102.751 23.4554 103.539 23.6954C104.48 24.0041 105.251 24.3041 105.85 24.5956C106.466 24.8871 106.997 25.3414 107.442 25.9587C107.905 26.5759 108.136 27.3818 108.136 28.3762C108.136 31.5654 106.064 33.1599 101.921 33.1599C101.236 33.1599 100.397 33.0999 99.4043 32.9799C98.9904 32.929 98.592 32.8719 98.2089 32.8087C97.3587 32.6683 96.8007 31.8774 96.9275 31.0245C96.9313 30.9993 96.9351 30.9738 96.9389 30.9481C96.9458 30.9078 96.9526 30.8682 96.9594 30.8291C97.1058 29.9886 97.8974 29.4665 98.7449 29.5598C99.1107 29.6001 99.5188 29.6428 99.9692 29.6879C101.185 29.8079 102.101 29.8679 102.717 29.8679C103.077 29.8679 103.291 29.8422 103.359 29.7908C103.462 29.7222 103.539 29.6107 103.59 29.4564C103.659 29.285 103.693 29.1392 103.693 29.0192C103.693 28.6763 103.53 28.4191 103.205 28.2476C102.88 28.059 102.323 27.8361 101.536 27.579C100.594 27.2875 99.8151 26.9874 99.1988 26.6788C98.5825 26.3702 98.0432 25.8901 97.5809 25.2386C97.1187 24.587 96.8875 23.7297 96.8875 22.6667C96.8875 21.9123 97.0587 21.175 97.4011 20.4549C97.7436 19.7176 98.0945 19.2204 98.4541 18.9632C98.728 18.7746 99.293 18.5946 100.149 18.4231C101.005 18.2517 101.81 18.1659 102.563 18.1659C103.847 18.1659 104.973 18.2466 105.942 18.4079C106.726 18.5385 107.227 19.2661 107.095 20.0507C107.091 20.0738 107.087 20.0971 107.083 20.1206C107.029 20.4957 106.972 20.8507 106.912 21.1857C106.852 21.5213 106.55 21.7557 106.21 21.7408C103.984 21.5865 102.563 21.5094 101.947 21.5094C101.69 21.5094 101.544 21.5179 101.51 21.5351C101.442 21.5694 101.382 21.6465 101.33 21.7665C101.279 21.8866 101.253 22.0237 101.253 22.178Z" fill="#0B101F"/>
<path d="M116.865 31.1531C116.865 32.1052 116.094 32.877 115.143 32.877H113.966C113.014 32.877 112.243 32.1052 112.243 31.1531V23.1561C112.243 22.204 111.472 21.4322 110.52 21.4322H109.715C108.827 21.4322 108.108 20.7125 108.108 19.8248C108.108 18.937 108.827 18.2174 109.715 18.2174H119.394C120.281 18.2174 121 18.937 121 19.8248C121 20.7125 120.281 21.4322 119.394 21.4322H118.588C117.637 21.4322 116.865 22.204 116.865 23.1561V31.1531Z" fill="#0B101F"/>
<path d="M25.3063 12.2641C26.5396 11.0345 32.0072 3.54194 33.9944 5.52322C34.8202 6.34657 36.9495 7.81282 35.6565 9.10194C34.9241 9.83217 25.4602 18.1962 29.8252 18.1962C31.565 18.1962 40.7974 16.7505 40.7974 19.5549C40.7974 20.7251 41.261 23.2572 39.4347 23.2572C37.2188 23.2572 22.98 21.5679 22.98 24.6159C22.98 26.1889 24.2603 33.5492 21.6173 33.5492C20.4509 33.5492 17.904 34.015 17.904 32.1905C17.904 30.6176 19.1842 23.2572 16.5413 23.2572C14.3224 23.2572 0.0525743 24.9475 0.0525743 21.8986C0.0525743 20.7284 -0.411055 18.1962 1.41528 18.1962C2.44515 18.1962 15.0358 18.9491 11.9543 15.8768C10.7243 14.6504 3.17314 9.16083 5.15934 7.18048C5.98831 6.35397 7.45624 4.23462 8.74866 5.52322C9.4829 6.25528 17.904 15.7275 17.904 11.3713C17.904 9.6257 16.4544 0.397572 19.2667 0.397572H21.6173C24.3853 0.397572 21.9447 15.6158 25.3063 12.2641Z" fill="#0C1421"/>
</svg>
