<svg width="1728" height="1504" viewBox="0 0 1728 1504" fill="none" xmlns="http://www.w3.org/2000/svg">
<path opacity="0.07" d="M3085.46 303.279C3118.06 332.978 3139.81 370.008 3150.49 413.274C3158.85 447.17 3169.3 480.357 3181.85 512.844C3200.04 559.943 3193.97 606.461 3164.25 647.332C3141.62 678.454 3117.7 706.739 3092.46 732.096C3066.72 757.956 3038.45 780.726 3007.69 800.372C2987.34 813.371 2969.7 833.779 2955.78 864.254C2933.86 912.25 2895.81 942.801 2843.8 949.778C2807.68 954.625 2772.77 960.197 2739.06 966.489C2716.58 970.684 2696.65 983.151 2678.9 1008.21C2651.29 1047.18 2615.67 1074.5 2571.91 1086.52C2535.19 1096.62 2497.2 1101.86 2458.03 1102.34C2428.53 1102.7 2401.93 1109.48 2377.6 1122.45C2348.05 1138.19 2318.63 1155.15 2289.33 1173.35C2250.13 1197.69 2206.26 1205.28 2160.02 1197.14C2132.43 1192.29 2109.02 1196.84 2087.6 1210.04C2051.4 1232.35 2012.07 1244.76 1970.15 1246.81C1944.06 1248.09 1922.04 1256.66 1902.67 1272.71C1877.13 1293.88 1852.1 1316.26 1827.61 1339.85C1798.86 1367.53 1766.18 1389.3 1729.75 1404.99C1696.25 1419.41 1661.91 1431.59 1626.73 1441.54C1596.45 1450.1 1567.65 1462.13 1540.25 1477.67C1501.73 1499.5 1459.41 1507.04 1414.88 1500.84C1381.63 1496.2 1350.41 1495.31 1321.12 1497.94C1284.77 1501.2 1248.64 1499.62 1212.82 1493.17C1181.34 1487.51 1149.64 1482.67 1117.72 1478.66C1083.04 1474.31 1048.62 1467.34 1014.46 1457.8C982.437 1448.85 949.762 1440 916.437 1431.26C878.789 1421.38 843.661 1406.01 811.225 1385.15C779.026 1364.44 750.225 1339.2 724.86 1309.58C709.504 1291.65 689.484 1281.15 661.766 1278.63C620.575 1274.89 582.093 1265.83 546.63 1251.11C514.437 1237.74 482.823 1223.16 451.792 1207.36C426.231 1194.35 398.015 1185.82 366.818 1182C328.213 1177.27 291.028 1168.48 255.341 1155.57C217.989 1142.06 184.023 1122.3 153.625 1096.43C130.013 1076.33 103.767 1059.91 74.7505 1047.13C36.0774 1030.11 3.35979 1004.91 -22.9338 971.874C-47.7582 940.689 -67.2543 906.302 -81.3646 868.86C-93.1633 837.552 -107.562 807.287 -124.581 778.05C-146.807 739.867 -156.905 697.84 -155.095 653.004C-152.975 600.483 -126.121 559.347 -80.6979 531.905C-50.0292 513.377 -29.4698 493.336 -16.7009 472.594C2.84736 440.839 27.5076 413.239 57.0671 389.905C80.6893 371.257 102.688 349.979 123.057 325.999C145.885 299.123 169.981 273.078 195.341 247.865C222.931 220.435 253.992 197.976 288.424 180.629C319.059 165.195 349.736 149.951 380.455 134.898C412.226 119.329 444.691 105.317 477.846 92.8664C511.684 80.159 546.309 70.0316 581.705 62.4873C609.47 56.5694 636.139 44.9873 661.87 27.233C677.673 16.3284 692.682 7.29581 706.132 1.75785C712.826 -0.998195 720.971 -3.66909 729.79 -4.54304C737.947 -5.35138 750.056 -4.91279 761.901 1.94706L761.908 1.9499C763.483 2.41789 766.309 3.09499 770.754 3.84274C779.648 5.33914 792.463 6.70102 809.715 7.76887C834.689 9.31474 856.001 2.20287 875.751 -14.7324C905.612 -40.3384 937.205 -62.1433 970.531 -80.0298C1009.28 -100.827 1051.78 -107.768 1096.51 -101.776C1121.85 -98.3829 1143.95 -104.461 1165.24 -121.53C1201.2 -150.358 1241.78 -166.688 1286.21 -168.514C1325.86 -170.143 1365.29 -164.889 1404.32 -152.981C1436.66 -143.115 1467.96 -136.887 1498.27 -134.141C1530.88 -131.186 1563.55 -129.103 1596.27 -127.894C1628.3 -126.711 1661.19 -127.158 1694.95 -129.255C1736.15 -131.814 1775.82 -125.267 1813.44 -109.505C1841.68 -97.6736 1871.49 -89.6359 1902.99 -85.443C1940.68 -80.427 1976.4 -71.8799 2010.03 -59.6708C2039.58 -48.9453 2070.15 -39.2636 2101.74 -30.635C2134.37 -21.7264 2167.19 -12.7797 2200.2 -3.7945C2230.95 4.57278 2262.24 10.2532 2294.11 13.2467C2332.88 16.8884 2370.11 26.8131 2405.62 42.9587C2432.8 55.3172 2461.01 62.7686 2490.43 65.3976C2527.94 68.75 2564.42 76.736 2599.77 89.3504C2634.36 101.694 2667.63 117.374 2699.57 136.351C2723.89 150.803 2750.46 159.406 2779.78 162.111C2826.13 166.387 2865.37 187.399 2895.84 223.15C2911.76 241.831 2932.4 252.184 2961.26 253.603C3009.05 255.952 3051.27 272.129 3085.46 303.279ZM3070.7 433.049C3063.82 405.164 3050.36 382.531 3030.08 364.057C3011.39 347.034 2987.89 337.193 2957.13 335.681C2907.43 333.237 2864.98 313.711 2833.27 276.497C2816.1 256.353 2796.27 246.167 2772.13 243.94C2730.96 240.142 2692.6 227.849 2657.53 207.01C2630.07 190.697 2601.59 177.289 2572.06 166.751C2543.29 156.484 2513.64 149.986 2483.02 147.249C2444.3 143.789 2407.07 133.935 2371.53 117.772C2344.31 105.397 2315.97 97.8475 2286.33 95.0631C2249.78 91.6305 2213.84 85.1094 2178.53 75.5001C2145.5 66.5089 2112.65 57.556 2080.01 48.6411C2046.33 39.4461 2013.63 29.0944 1981.91 17.5784C1954.27 7.54598 1924.36 0.315767 1892.06 -3.98369C1853.57 -9.10627 1816.72 -18.9973 1781.61 -33.7062C1755.89 -44.4842 1728.84 -49.0302 1699.95 -47.2357C1663.61 -44.9789 1628.01 -44.4851 1593.14 -45.7734C1558.95 -47.0364 1524.83 -49.2118 1490.75 -52.2994C1454.37 -55.5963 1417.53 -63.0083 1380.26 -74.3781C1349.68 -83.7067 1319.48 -87.6389 1289.49 -86.4062C1264.27 -85.3699 1240.23 -76.3839 1216.6 -57.4389C1178.3 -26.7358 1133.8 -13.8585 1085.51 -20.3267C1056.62 -24.1962 1031.73 -19.6564 1009.33 -7.63222C981.498 7.30309 954.788 25.6826 929.201 47.6237C893.501 78.2357 851.248 92.6798 804.54 89.7887C785.95 88.638 769.939 87.0546 757.025 84.8818C750.387 83.765 742.103 82.1442 733.961 79.2735C728.348 82.0131 719.995 86.9124 708.486 94.8535C674.407 118.369 637.773 134.539 598.743 142.858C567.344 149.55 536.654 158.528 506.656 169.793C475.974 181.316 445.938 194.278 416.545 208.682C386.099 223.602 355.693 238.712 325.326 254.01C298.756 267.396 274.763 284.714 253.246 306.107C229.499 329.717 206.973 354.067 185.662 379.156C161.892 407.141 135.986 432.241 107.937 454.383C85.8251 471.838 67.672 492.211 53.2654 515.613C32.0795 550.028 0.796122 578.629 -38.2665 602.228C-62.575 616.914 -72.093 634.142 -72.9843 656.22C-74.1858 685.983 -67.6333 712.446 -53.5475 736.645C-34.2543 769.789 -17.8865 804.18 -4.463 839.799C6.64907 869.286 21.9125 896.186 41.3839 920.647C59.3861 943.262 81.4151 960.238 107.938 971.915C144.118 987.844 177.161 1008.49 206.929 1033.82C229.912 1053.38 255.331 1068.15 283.368 1078.29C313.071 1089.03 344.226 1096.43 376.91 1100.43C417.003 1105.35 454.521 1116.5 489.137 1134.12C518.282 1148.95 547.975 1162.65 578.218 1175.2C605.191 1186.4 635.449 1193.71 669.301 1196.79C716.625 1201.09 756.97 1220.67 787.302 1256.09C807.625 1279.82 830.423 1299.74 855.733 1316.02C880.806 1332.14 907.964 1344.05 937.375 1351.77C971.11 1360.62 1004.21 1369.58 1036.67 1378.65C1067.01 1387.13 1097.47 1393.28 1128.06 1397.13C1161.42 1401.32 1194.55 1406.37 1227.46 1412.29C1256.03 1417.43 1284.81 1418.7 1313.88 1416.09C1350.02 1412.85 1387.53 1414.04 1426.31 1419.44C1453.81 1423.27 1477.77 1418.67 1499.79 1406.19C1532.92 1387.41 1567.83 1372.82 1604.46 1362.47C1636.19 1353.49 1667.14 1342.51 1697.33 1329.51C1724.58 1317.78 1748.96 1301.56 1770.64 1280.69C1796.58 1255.71 1823.12 1231.97 1850.27 1209.46C1883.61 1181.83 1922.73 1166.86 1966.24 1164.73C1993.92 1163.38 2019.84 1155.32 2044.55 1140.1C2084.03 1115.77 2128.03 1108.06 2174.36 1116.21C2202.03 1121.08 2225.16 1116.52 2246.04 1103.55C2276.83 1084.43 2307.83 1066.55 2339.03 1049.93C2375.44 1030.53 2415.03 1020.68 2457.12 1020.17C2489.55 1019.77 2520.55 1015.44 2550.22 1007.29C2572.84 1001.07 2593.43 986.77 2611.86 960.758C2640.15 920.826 2677.67 894.369 2724.07 885.708C2759.24 879.144 2795.54 873.353 2832.97 868.331C2854.52 865.44 2869.81 854.77 2881.04 830.192C2900.26 788.092 2927.42 754.186 2963.51 731.133C2989.19 714.727 3012.76 695.745 3034.26 674.155C3056.25 652.061 3077.45 627.058 3097.81 599.055C3111.08 580.801 3113.34 563.648 3105.19 542.53C3091.39 506.802 3079.89 470.305 3070.7 433.049ZM2667.33 416.857C2693.01 439.068 2715.87 461.613 2735.8 484.524C2763.47 516.323 2771.94 554.976 2760.2 595.487C2750.49 629.026 2732.55 660.741 2707.9 690.675C2682.57 721.429 2652.17 746.156 2616.92 764.639C2582.74 782.563 2546.23 794.992 2507.56 801.98C2479.53 807.044 2454.76 818.257 2432.67 835.821C2401.68 860.456 2367.72 879.256 2330.92 892.02C2297.87 903.48 2264.6 913.959 2231.12 923.457C2203.7 931.233 2178.07 944.27 2154.07 962.94C2124.2 986.171 2092.97 1006.35 2060.38 1023.41C2026.41 1041.19 1990.41 1053.66 1952.52 1060.82C1918.95 1067.15 1891.37 1071.08 1873.37 1070.53C1874.47 1070.56 1871.43 1070.42 1862.03 1073.7C1853.41 1076.71 1841.96 1081.7 1827.39 1089.09C1802.85 1101.54 1782.53 1119.5 1766.17 1143.69C1743.02 1177.9 1714.18 1206.5 1679.84 1229.24C1640.36 1255.4 1595.81 1263.13 1549 1253.25C1521.38 1247.41 1494.84 1250.49 1468.06 1263.07C1425.18 1283.2 1380.64 1287.91 1336.28 1275.2C1297.32 1264.03 1261.28 1245.89 1228.3 1221.04C1201.43 1200.79 1174.1 1184.48 1146.34 1171.91C1116.79 1158.54 1086.68 1146.6 1056 1136.08C1027.29 1126.24 997.232 1119.86 965.727 1116.98C928.558 1113.59 892.325 1106.86 857.071 1096.77C828.823 1088.69 799.503 1085.38 768.907 1086.96C728.675 1089.04 689.596 1083.51 651.991 1070.31C619.355 1058.85 586.871 1047.21 554.542 1035.4C522.02 1023.52 489.67 1011.2 457.495 998.428C427.349 986.463 396.509 976.519 364.963 968.593C326.374 958.898 291.016 942.033 259.174 918.146C234.13 899.357 207.391 883.619 178.912 870.897C141.503 854.185 109.924 829.471 84.6145 797.151C58.024 763.194 44.2214 724.507 45.2029 682.261C45.9848 648.611 48.8146 614.062 53.6539 578.632C60.4321 529.007 90.0852 493.371 136.445 474.59C159.72 465.16 177.409 448.525 189.887 421.813C209.649 379.501 238.91 346.41 278.106 324.984C313.543 305.614 351.882 293.686 392.766 289.103C420.938 285.946 445.65 275.811 467.742 258.423C502.282 231.236 541.804 215.852 585.359 212.899C618.776 210.634 651.221 206.3 682.712 199.92C716.991 192.975 751.514 187.24 786.28 182.715C809.581 179.683 832.53 168.427 855.419 145.442C893.087 107.615 940.071 92.9368 991.63 105.911C1027.94 115.048 1063.13 123.598 1097.18 131.564C1118.96 136.657 1141.2 132.992 1166.26 116.35C1205.62 90.2097 1248 76.9466 1292.46 79.7563C1329.72 82.1113 1366.96 88.7996 1404.11 99.7119C1432.08 107.927 1459.07 108.853 1485.73 102.919C1518.18 95.6972 1550.6 86.8776 1583.01 76.4512C1626.56 62.4393 1670.74 65.1928 1713.7 83.2588C1739.22 93.9862 1762.53 94.4529 1785.79 85.9549C1828.25 70.4391 1871.61 70.1616 1914.16 85.2038C1946.03 96.4738 1977.73 105.402 2009.24 112.022C2041.27 118.751 2073.89 123.94 2107.11 127.584C2146.08 131.858 2183.24 142.265 2218.39 158.815C2250.43 173.902 2281.92 190.392 2312.84 208.283C2339.15 223.499 2367.06 234.368 2396.74 240.942C2438.64 250.229 2475.21 271.033 2505.89 302.272C2528.51 325.311 2552.63 343.298 2578.23 356.613C2610.67 373.496 2640.41 393.568 2667.33 416.857ZM2673.77 538.503C2656.72 518.9 2636.68 499.066 2613.52 479.033C2591.61 460.079 2567.22 443.566 2540.23 429.523C2506.38 411.913 2475.39 388.574 2447.22 359.885C2427.1 339.398 2404.5 326.855 2378.87 321.174C2340.99 312.782 2305.2 298.849 2271.63 279.428C2242.68 262.682 2213.24 247.264 2183.31 233.171C2156.49 220.54 2128.13 212.57 2098.05 209.271C2062.22 205.341 2026.95 199.734 1992.25 192.444C1957.03 185.046 1921.84 175.115 1886.68 162.685C1862.19 154.028 1838.5 154.152 1813.9 163.138C1770.1 179.141 1725.34 177.335 1681.78 159.019C1655.67 148.041 1631.71 147.078 1608.09 154.677C1573.33 165.862 1538.46 175.35 1503.49 183.133C1462.73 192.203 1421.64 190.536 1380.86 178.561C1349.27 169.282 1318.06 163.721 1287.18 161.77C1263.49 160.273 1238.63 166.88 1211.67 184.789C1170.4 212.195 1125.19 222.532 1078.37 211.583C1043.84 203.506 1008.21 194.847 971.487 185.606C950.009 180.201 932.298 184.629 913.614 203.391C880.151 236.995 841.112 258.436 796.79 264.205C763.934 268.481 731.316 273.9 698.935 280.46C663.766 287.585 627.72 292.387 590.818 294.889C564.052 296.703 540.269 305.856 518.52 322.974C484.323 349.89 445.144 365.913 401.822 370.769C371.213 374.2 343.209 383.003 317.455 397.081C295.461 409.103 277.608 428.1 264.335 456.517C243.776 500.532 211.28 532.9 167.222 550.749C146.247 559.246 137.588 571.261 135.075 589.657C130.624 622.248 128.064 653.715 127.358 684.071C126.853 705.833 133.515 726.231 149.338 746.438C166.443 768.281 187.352 784.622 212.505 795.859C246.588 811.085 278.615 829.94 308.54 852.389C330.243 868.671 353.962 880.344 379.933 887.532C379.626 886.937 379.327 886.34 379.037 885.743C370.567 868.281 363.559 851.731 358.184 836.169C358.068 836.005 357.78 835.653 357.169 835.112C355.658 833.774 352.351 831.476 345.97 828.98C331.759 823.421 315.463 813.72 305.626 796.175C295.013 777.247 296.316 757.264 302.005 741.081C311.124 715.139 328.337 694.645 352.776 681.684C360.759 677.45 364.058 673.115 365.8 669.113C371.559 655.884 377.389 641.81 383.286 626.884C389.168 611.995 399.223 598.682 414.139 589.648C428.613 580.882 444.546 578.025 459.426 578.187C459.863 578.192 460.254 578.185 460.602 578.172C471.736 554.127 490.771 535.943 517.253 527.928C525.856 525.324 532.772 521.247 538.613 515.693C547.564 507.182 556.137 497.571 564.308 486.792C578.173 468.502 596.046 454.74 617.591 446.647C633.133 440.809 649.08 435.969 665.415 432.121C672.32 430.495 677.865 427.344 682.869 422.135C703.576 400.581 730.814 393.197 758.526 395.85C769.725 396.922 775.945 394.968 779.559 392.936C794.286 384.659 809.793 377.75 826.032 372.187C835.463 368.956 843.816 364.323 851.318 358.236C862.984 348.771 874.842 339.475 886.893 330.35C896.314 323.216 905.292 314.895 913.806 305.294C927.633 289.704 943.994 277.355 962.826 268.872C981.568 260.431 1001.71 256.262 1022.67 255.759C1030.42 255.572 1035.04 253.472 1038.64 250.486C1057.9 234.543 1081.04 226.769 1106.13 228.276C1121.68 229.21 1137.25 230.757 1152.81 232.916C1157.08 233.508 1162.16 232.956 1169.3 228.756C1186.44 218.667 1204.29 211.097 1222.81 206.451C1244.25 201.071 1265.96 201.518 1287.24 207.46C1292.55 208.944 1297.28 208.71 1303.03 206.212C1324.82 196.753 1347.98 194.173 1371.3 199.24C1388.24 202.921 1405.06 208.147 1421.73 214.842C1425.06 216.178 1426.88 216.183 1430.51 214.268C1448.01 205.044 1466.22 198.507 1485.05 195.061L1485.87 194.916C1520.32 188.985 1548.04 207.973 1567.02 228.954C1570.5 232.791 1573.02 234.799 1574.48 235.787C1592.42 231.942 1610.6 231.095 1628.83 233.281C1635.95 234.137 1643.23 233.231 1651.28 229.889C1665.61 223.947 1679.94 218.07 1694.27 212.261C1716.14 203.396 1739.19 201.385 1762.24 206.899C1778.5 210.791 1794.24 215.747 1809.43 221.792C1823.94 227.565 1838.25 234.059 1852.38 241.268C1867.58 249.025 1882.08 258.139 1895.88 268.57C1897.32 269.658 1899.68 271.23 1907.06 269.906C1922.27 267.181 1938.74 268.162 1954.39 275.676C1969.91 283.123 1980.92 295.211 1988.49 308.292C1993.65 317.19 1997.77 319.169 1999.74 319.826C2014.63 324.794 2029.22 330.484 2043.5 336.896C2047.69 338.778 2055 340.385 2067.52 338.586C2082.88 336.379 2100.06 337.642 2116.06 346.422C2132.21 355.281 2142.51 369.236 2148.66 383.787C2154.36 397.258 2160.46 407.288 2166.52 414.609C2175.39 425.317 2184.03 435.629 2192.43 445.547C2192.76 445.742 2193.42 446.093 2194.56 446.528C2197.65 447.718 2203.08 449.088 2211.73 449.777C2224.97 450.832 2251.68 455.114 2265.52 479.599C2279.97 505.166 2268.3 530.574 2261.57 542.258C2256.97 550.253 2254.08 556.519 2252.4 561.208C2250.68 566.039 2250.68 567.977 2250.68 567.695C2250.67 571.426 2252.24 581.224 2259.46 599.319C2265.11 613.496 2268.94 630.853 2264.83 648.973C2260.38 668.567 2248.07 682.971 2232.96 692.15C2214.78 703.194 2194.67 709.555 2173.36 711.91C2172.32 725.484 2168.87 739.946 2160.52 752.895C2150.33 768.684 2135.15 778.632 2117.89 782.767C2103.35 786.247 2089.15 789.766 2075.26 793.324C2074.76 794.349 2074.04 796.123 2073.32 798.943C2065.9 827.968 2047.36 855.216 2012.55 863.014C1998.52 866.158 1984.86 869.735 1971.59 873.741C1956.72 878.229 1941.73 882.378 1926.6 886.189C1911.31 890.044 1895.88 893.304 1880.32 895.973C1879.75 896.686 1878.63 898.302 1877.3 901.431C1865.5 929.208 1842.96 951.328 1809 954.552C1793.93 955.983 1778.59 956.232 1763.01 955.354C1762.28 956.549 1761.5 957.742 1760.64 958.924C1753.88 968.225 1744.43 974.63 1733.8 977.67C1715.38 982.942 1698.34 976.87 1689.05 972.841C1688.98 972.811 1688.92 972.787 1688.86 972.763C1688.39 972.997 1687.64 973.427 1686.61 974.181C1669.69 986.606 1651.84 996.336 1633.04 1002.74C1605.68 1012.05 1579.51 1006.05 1557.6 992.052C1538.1 1009.33 1513.08 1020.72 1484.1 1016.36C1463.11 1013.2 1443.2 1005.14 1424.53 993.516C1414.16 987.057 1405.68 984.49 1398.83 983.909C1387.74 982.97 1376.75 983.412 1365.77 985.24C1356.14 986.841 1346.04 990.22 1335.38 995.828C1314.13 1007 1290.91 1011.59 1266.9 1007.86C1261.36 1007 1255.52 1007.67 1248.33 1011.22C1226.98 1021.77 1203.88 1025.72 1180.19 1021.72C1166.19 1019.35 1152.2 1017.27 1138.23 1015.48C1124.13 1013.67 1110.04 1012.09 1095.97 1010.73C1086.21 1009.78 1076.54 1010.5 1066.74 1012.97C1043.3 1018.87 1019.87 1016.63 997.773 1007.49C990.546 1004.5 984.467 1004.11 978.445 1005.41C958.646 1009.69 938.667 1010.08 918.826 1006.45C900.607 1003.11 883.027 997.253 866.16 989.009C864.035 987.97 861.721 987.2 855.954 989.516C841.712 995.236 825.792 997.428 809.42 993.697C796.566 990.768 785.558 984.673 776.32 977.048C755.358 992.217 729.865 1002.65 701.762 998.143C678.896 994.473 658.599 984.033 641.064 969.01C640.064 968.153 639.412 967.775 639.14 967.635C639.096 967.613 639.058 967.597 639.028 967.583C639.013 967.584 638.996 967.584 638.978 967.585C638.731 967.6 638.054 967.671 636.876 968.031C631.175 969.773 625.474 970.97 619.81 971.621C639.58 978.734 659.407 985.783 679.294 992.764C706.637 1002.36 735.024 1006.43 764.771 1004.89C804.156 1002.86 842.555 1007.12 879.765 1017.76C909.968 1026.41 941.13 1032.21 973.293 1035.14C1011.12 1038.6 1047.63 1046.31 1082.73 1058.34C1115.86 1069.7 1148.39 1082.6 1180.29 1097.04C1213.98 1112.28 1246.48 1131.79 1277.8 1155.38C1303 1174.37 1330.02 1187.89 1359.02 1196.2C1382.6 1202.96 1406.72 1201.13 1433.2 1188.69C1475.77 1168.7 1520.51 1163.22 1566.07 1172.84C1592.45 1178.41 1614.33 1174.12 1634.52 1160.75C1659.84 1143.97 1680.98 1123.04 1698.12 1097.7C1722.03 1062.35 1752.84 1034.81 1790.27 1015.82C1806.69 1007.49 1821.7 1000.78 1835.02 996.124C1847.58 991.741 1861.96 987.963 1875.98 988.391C1883.8 988.63 1903.06 986.543 1937.37 980.066C1967.35 974.406 1995.62 964.591 2022.33 950.61C2050.42 935.906 2077.53 918.42 2103.66 898.095C2135.66 873.209 2170.75 855.187 2208.78 844.4C2240.75 835.335 2272.51 825.328 2304.08 814.381C2331.89 804.738 2357.68 790.518 2381.57 771.52C2414.37 745.449 2451.72 728.579 2493.04 721.113C2523.72 715.569 2552.25 705.806 2578.82 691.872C2604.33 678.498 2626.13 660.773 2644.48 638.484C2663.51 615.375 2675.27 593.436 2681.27 572.71C2685.26 558.955 2683.1 549.218 2673.77 538.503ZM542.886 943.361C537.28 939.767 531.739 936.736 526.267 934.222C512.122 927.724 498.4 920.406 485.105 912.281C483.535 912.484 480.161 913.236 474.658 915.817C474.221 916.021 473.779 916.223 473.334 916.425C478.203 918.251 483.056 920.123 487.892 922.043C506.166 929.296 524.498 936.401 542.886 943.361ZM2074.96 420.468C2052.66 423.106 2030.35 421.113 2009.76 411.87C1997.99 406.584 1985.96 401.888 1973.65 397.783C1949.1 389.594 1931.03 372.381 1918.41 351.298C1893.08 355.152 1867.82 350.436 1846.27 334.144C1836.21 326.54 1825.77 319.996 1814.95 314.473C1803.05 308.4 1791.06 302.962 1778.97 298.151C1767.56 293.612 1755.59 289.828 1743.02 286.821C1737.24 285.437 1731.65 285.744 1725.06 288.414C1710.94 294.14 1696.81 299.932 1682.69 305.789C1662.3 314.248 1640.84 317.501 1618.94 314.874C1609.23 313.709 1599.64 314.239 1589.97 316.506C1554.31 324.869 1525.39 305.496 1506.05 284.126C1501.88 279.511 1498.93 277.318 1497.37 276.364C1488.23 278.283 1478.71 281.709 1468.76 286.958C1444.06 299.973 1417.05 301.551 1391.03 291.107C1378.37 286.022 1365.95 282.192 1353.76 279.544C1347.94 278.281 1342.32 278.706 1335.68 281.587C1313.01 291.428 1288.93 293.284 1265.04 286.61C1257.11 284.394 1249.91 284.353 1242.72 286.156C1232.62 288.691 1222.03 293.029 1210.91 299.57C1189.78 312.001 1166.21 317.75 1141.43 314.315C1127.95 312.446 1114.51 311.111 1101.11 310.306C1097.23 310.073 1094.52 310.852 1091.01 313.756C1071.85 329.616 1048.99 337.326 1024.55 337.913C1013.32 338.182 1004.16 340.344 996.499 343.793C988.932 347.202 981.873 352.322 975.259 359.779C963.332 373.227 950.403 385.279 936.451 395.843C925.129 404.417 913.995 413.144 903.048 422.025C887.939 434.285 871.039 443.602 852.579 449.926C840.928 453.917 830.003 458.803 819.757 464.562C798.398 476.566 774.554 479.946 750.598 477.653C746.37 477.248 744.311 477.762 743.647 477.98C743.178 478.134 742.79 478.309 742.097 479.031C726.151 495.628 706.567 506.832 684.165 512.109C671.192 515.164 658.611 518.988 646.407 523.572C640.206 525.901 634.774 529.792 629.774 536.386C619.081 550.492 607.566 563.457 595.202 575.213C579.731 589.925 561.448 600.381 540.97 606.579C539.139 607.133 537.288 607.764 534.924 613.163C528.553 627.711 518.249 640.524 503.485 649.204C489.092 657.666 473.331 660.523 458.428 660.36C458.41 660.36 458.392 660.359 458.375 660.359C452.613 674.848 446.871 688.677 441.141 701.838C430.954 725.241 413.267 742.575 391.211 754.273C389.574 755.141 388.108 756.094 386.791 757.184C407.752 767.457 426.471 783.451 435.345 807.8L435.828 809.163L436.613 811.404C439.501 819.533 443.111 828.424 447.493 838.102C471.686 828.456 500.416 825.103 526.748 841.369L528.803 842.628C539.105 848.883 549.717 854.519 560.648 859.541C577.136 867.116 592.824 876.966 607.736 888.811C608.606 889.502 609.168 889.799 609.406 889.911C609.531 889.969 609.603 889.995 609.629 890.003C609.654 890.011 609.665 890.013 609.671 890.014C609.678 890.016 609.714 890.022 609.792 890.026C609.871 890.03 610.022 890.032 610.254 890.015C610.713 889.98 611.59 889.859 612.943 889.446C642.42 880.436 671.3 886.64 694.572 906.577C702.467 913.341 709.173 916.087 714.879 917.003C714.888 917.004 714.912 917.008 714.963 917.01C715.015 917.011 715.124 917.011 715.303 916.993C715.651 916.959 716.386 916.846 717.561 916.45C720.011 915.625 724.079 913.671 729.772 909.323C742.251 899.793 758.618 891.385 778.025 891.311C798.464 891.233 815.189 900.385 827.414 912.481C851.896 903.19 877.867 903.219 902.318 915.17C912.696 920.242 923.141 923.679 933.725 925.617C942.688 927.259 951.729 927.13 961.167 925.089C984.381 920.069 1007.44 922.52 1029.26 931.541C1036.2 934.412 1041.61 934.578 1046.78 933.275C1065.6 928.541 1084.74 927.066 1103.99 928.931C1118.91 930.377 1133.84 932.056 1148.77 933.969C1163.84 935.899 1178.91 938.139 1193.99 940.689C1199.37 941.6 1205 941.012 1212.01 937.55C1233.18 927.093 1256.06 923.008 1279.59 926.656C1284.63 927.439 1290.12 926.829 1297.2 923.106C1312.04 915.3 1327.41 909.493 1343.27 905.952C1298.86 901.654 1260.28 882.321 1228.85 849.503C1213.97 833.961 1197.58 828.817 1172.94 835.187C1127.77 846.868 1083.64 845.907 1041.93 830.557C1003.8 816.522 969.418 795.331 938.958 767.316C911.698 742.243 887.914 718.733 867.728 696.808C840.002 666.693 828.617 628.997 842.571 588.859C853.142 558.453 872.562 529.18 898.263 500.954C926.696 469.727 961.512 448.054 1002.01 436.455C1031.7 427.95 1060.3 415.645 1087.85 399.441C1124.05 378.154 1163.44 366.372 1205.45 364.218C1242.27 362.331 1278.47 362.345 1314.03 364.278C1347.86 366.117 1381.67 367.658 1415.47 368.903C1446.85 370.058 1478.11 368.178 1509.29 363.254C1550.46 356.753 1590.85 361.369 1629.69 376.901C1658.9 388.587 1688.99 396.901 1720 401.861C1757.69 407.889 1793.78 418.84 1828.17 434.716C1863.07 450.831 1894.25 471.875 1921.46 497.864C1951.32 526.395 1969.88 561.108 1970.68 601.362C1971.16 625.184 1962.97 648.35 1943.16 665.225C1925.15 680.571 1901.99 686.826 1879.71 689.026C1855.43 691.423 1835.42 702.38 1818.1 725.098C1790.45 761.369 1756.75 788.232 1716.8 803.573C1681.21 817.24 1646.36 823.947 1613.78 819.67C1607 818.78 1601.62 818.148 1597.49 817.726C1595.33 818.81 1593.12 819.843 1591.01 820.801C1582.33 824.737 1569.9 829.806 1554.21 835.891C1525.49 847.032 1497.46 860.9 1470.12 877.543C1450.67 889.375 1430.08 897.599 1408.54 902.283C1429.68 904.545 1449.59 912.259 1468.03 923.743C1478.92 930.528 1488.32 933.869 1496.37 935.089C1496.46 935.066 1496.61 935.021 1496.82 934.936C1497.81 934.546 1500.44 933.225 1504.51 929.306C1515.95 918.314 1531.33 908.715 1550.53 906.962C1570.08 905.179 1587.07 912.101 1600.3 921.695C1604.07 924.429 1606.1 924.929 1606.44 924.999L1606.45 925C1606.5 924.988 1606.56 924.974 1606.64 924.947C1616.36 921.638 1626.82 916.189 1638.02 907.968C1657.46 893.689 1680.13 887.421 1703.34 891.745C1707.53 887.156 1712.61 883.157 1718.6 879.985C1733.21 872.247 1748.84 871.805 1760.57 872.802C1774.32 873.972 1787.42 873.965 1799.89 872.869C1800.34 872.165 1800.96 871.052 1801.67 869.382C1812.91 842.926 1833.63 820.582 1865.84 815.098L1868.41 814.654C1881.25 812.404 1893.98 809.688 1906.61 806.505C1920.51 803.002 1934.29 799.19 1947.93 795.071C1962.36 790.716 1977.1 786.826 1992.14 783.397C1992.57 782.415 1993.14 780.897 1993.71 778.674C2001.03 750.018 2018.99 722.965 2052.89 714.25L2058.52 712.808C2069.34 710.052 2080.33 707.324 2091.49 704.62C2091.5 704.406 2091.51 704.184 2091.52 703.955C2092.05 687.842 2096.17 669.135 2109.53 653.846C2123.55 637.803 2142.35 631.616 2159.67 630.628C2168.3 630.135 2175.53 628.554 2181.69 626.178C2173.97 606.164 2168.45 585.998 2168.5 567.546C2168.54 554.021 2172.1 540.384 2177.48 527.218C2159.83 522.627 2142.86 514.239 2130.19 499.295C2121.43 488.952 2112.43 478.212 2103.21 467.077C2091.99 453.534 2082.69 437.808 2074.96 420.468ZM1888.52 603.106C1888.25 589.356 1882.44 574.307 1864.66 557.318C1844.21 537.788 1820.62 521.787 1793.65 509.332C1766.15 496.637 1737.28 487.862 1706.93 483.007C1669.9 477.085 1633.94 467.146 1599.09 453.206C1573.86 443.115 1548.43 440.255 1522.02 444.425C1485.62 450.173 1449.05 452.375 1412.35 451.024C1378.07 449.762 1343.78 448.199 1309.47 446.334C1276.91 444.564 1243.61 444.542 1209.56 446.288C1180.7 447.767 1154.18 455.719 1129.44 470.265C1096.06 489.894 1061.08 504.99 1024.55 515.454C998.817 522.825 977.201 536.247 958.995 556.241C938.059 579.235 925.979 599.104 920.188 615.761C917.781 622.687 917.457 629.423 928.215 641.108C946.514 660.983 968.611 682.873 994.628 706.801C1017.45 727.787 1042.65 743.22 1070.4 753.433C1094.57 762.331 1121.46 763.644 1152.46 755.628C1203.99 742.302 1251.5 754.263 1288.24 792.628C1307.32 812.557 1328.76 822.568 1354.01 824.389C1381.74 826.388 1405.76 820.563 1427.45 807.358C1458.81 788.273 1491.19 772.231 1524.57 759.281C1539.94 753.321 1550.63 748.922 1557.14 745.967C1557.51 745.802 1557.84 745.646 1558.16 745.501C1561.91 742.244 1565.44 740.351 1567.49 739.365C1574.67 735.905 1581.27 735.32 1582.74 735.175C1587.5 734.703 1592.32 734.91 1595.49 735.098C1602.74 735.525 1612.66 736.627 1624.57 738.19C1638.92 740.073 1659.36 737.638 1687.42 726.862C1711.12 717.76 1732.98 701.285 1752.77 675.325C1782.9 635.811 1823.07 612.051 1871.73 607.247C1878.45 606.583 1883.11 605.489 1886.16 604.43C1887.17 604.077 1887.95 603.749 1888.52 603.476C1888.52 603.359 1888.53 603.236 1888.52 603.106Z" stroke="#0B101F"/>
</svg>
