<svg width="1728" height="2299" viewBox="0 0 1728 2299" fill="none" xmlns="http://www.w3.org/2000/svg">
<path d="M257.349 195.131C282.832 118.674 339.536 56.608 413.384 24.3385C563.136 -41.0977 737.119 32.7362 794.112 185.909L807.392 221.593C874.698 402.482 1087.46 480.754 1255.93 386.607L1694.47 141.543C1942.12 3.14783 2255.08 148.723 2296.59 429.587C2391.14 1069.25 2376.41 1480.25 2134 1910.32L2133.91 1910.47L2133.82 1910.6C1979.45 2124.12 1796.88 2236.29 1603.12 2278.52C1409.44 2320.74 1204.84 2293 1006.4 2227.2C609.594 2095.61 236.651 1811.5 23.2776 1627.84C-94.8111 1526.19 -132.056 1363.45 -82.8646 1215.87L257.349 195.131ZM415.74 29.727C343.417 61.3298 287.885 122.114 262.928 196.991L-77.2853 1217.73C-125.797 1363.27 -88.9937 1523.44 27.1127 1623.38C240.338 1806.92 612.57 2090.4 1008.26 2221.62C1206.07 2287.21 1409.55 2314.69 1601.87 2272.78C1794.07 2230.89 1975.39 2119.63 2128.95 1907.29C2370.33 1478.97 2385.24 1069.58 2290.77 430.448C2249.89 153.854 1941.58 10.1902 1697.34 146.677L1258.8 391.742C1087.18 487.648 870.442 407.912 801.878 223.644L788.6 187.957C732.784 37.9501 562.397 -34.3568 415.74 29.727ZM308.843 414.532C327.574 344.781 377.012 287.338 443.194 258.424C568.212 203.806 713.453 265.44 761.042 393.306L789.715 470.346C843.668 615.308 996.354 698.191 1147.3 664.455L1542.93 576.036C1759.21 527.697 1979.99 657.4 2018.74 876.016C2091.96 1289.11 2073.82 1678.66 1805.14 1977.36C1712.12 2080.78 1591.13 2123.38 1456.39 2124.61C1321.75 2125.83 1173.29 2085.75 1024.97 2023.75C728.309 1899.77 431.335 1687.78 244.801 1541.3C122.132 1444.96 75.207 1284.53 115.608 1134.09L308.843 414.532ZM445.549 263.812C381.005 292.01 332.79 348.032 314.521 416.057L121.288 1135.62C81.4484 1283.97 127.765 1441.91 248.431 1536.67C434.849 1683.07 731.324 1894.65 1027.24 2018.33C1175.2 2080.17 1322.81 2119.94 1456.34 2118.73C1589.78 2117.51 1709.07 2075.37 1800.77 1973.43C2067.61 1676.77 2086.07 1289.55 2012.95 877.043C1974.86 662.109 1757.62 534.078 1544.21 581.773L1148.58 670.194C994.768 704.571 839.182 620.112 784.205 472.396L755.532 395.356C709.12 270.654 567.473 210.546 445.549 263.812ZM482.122 742.522C494.647 695.924 527.679 657.548 571.891 638.223C655.473 601.689 752.589 642.902 784.391 728.402L803.378 779.454C839.011 875.258 939.922 930.032 1039.67 907.712L1194.4 873.087C1398.93 827.321 1612.52 949.291 1642.08 1157.41C1665.69 1323.6 1658.27 1464 1614.13 1640.39L1614.11 1640.49C1574.75 1775.26 1509.35 1855.08 1427.81 1894.62C1346.37 1934.12 1249.39 1933.15 1147.39 1907.56C943.473 1856.38 717.969 1706.39 552.355 1580.21C405.256 1468.15 342.72 1261.11 390.673 1082.72L482.122 742.522ZM574.246 643.611C531.671 662.221 499.865 699.176 487.802 744.049L396.352 1084.25C348.968 1260.52 410.872 1465.03 555.92 1575.54C721.494 1701.68 946.169 1851 1148.83 1901.85C1250.12 1927.27 1345.53 1928 1425.25 1889.33C1504.86 1850.72 1569.39 1772.54 1608.43 1638.95C1652.39 1463.27 1659.75 1323.64 1636.26 1158.24C1607.27 954.115 1397.48 833.671 1195.69 878.827L1040.95 913.45C938.337 936.411 834.526 880.063 797.868 781.504L778.879 730.454C748.255 648.119 654.735 608.43 574.246 643.611ZM628.647 994.654C636.174 966.527 656.107 943.361 682.796 931.721C733.076 909.795 791.46 934.568 810.633 985.963L822.081 1016.65C843.151 1073.13 902.643 1105.43 961.486 1092.34L1053.39 1071.88C1175.64 1044.67 1303.41 1117.51 1321.3 1242.1C1331.84 1315.49 1332.22 1380.47 1321.07 1451.97C1312.9 1504.31 1291.15 1555.33 1251.19 1590.73C1169.48 1663.13 1072.46 1673.77 976.745 1653.08C881.122 1632.41 786.559 1580.45 709.151 1527.28C587.849 1443.95 549.727 1289.54 587.614 1147.97L628.647 994.654ZM685.147 937.11C660.099 948.033 641.392 969.775 634.327 996.173L593.295 1149.49C555.888 1289.26 593.705 1440.85 712.478 1522.43C789.618 1575.42 883.445 1626.9 977.986 1647.33C1072.44 1667.75 1167.36 1657.15 1247.29 1586.33C1285.94 1552.09 1307.23 1502.49 1315.25 1451.06C1326.31 1380.19 1325.94 1315.8 1315.48 1242.93C1298.17 1122.33 1174.19 1051.02 1054.67 1077.62L962.763 1098.08C901.056 1111.81 838.667 1077.94 816.571 1018.7L805.125 988.02C787.132 939.784 732.336 916.532 685.147 937.11ZM707.09 1133.23C711.949 1115.15 724.767 1100.26 741.924 1092.76C774.351 1078.59 812.025 1094.58 824.365 1127.74L831.521 1146.98C844.62 1182.19 881.706 1202.32 918.366 1194.12L976.609 1181.09C1054.45 1163.68 1136.05 1210.07 1147.37 1289.66C1153.78 1334.81 1154.15 1374.98 1147.63 1418.79C1142.29 1454.67 1127.33 1489.96 1099.36 1513.77C1047.72 1557.73 986.9 1563.93 927.083 1550.93C867.349 1537.95 808.381 1505.81 759.894 1472.74C681.439 1419.23 657.02 1319.56 681.503 1228.45L707.09 1133.23ZM744.279 1098.15C728.759 1104.93 717.166 1118.4 712.771 1134.76L687.182 1229.98C663.181 1319.3 687.306 1416.11 763.207 1467.88C811.422 1500.77 869.661 1532.44 928.329 1545.19C986.914 1557.91 1045.69 1551.74 1095.55 1509.29C1122.11 1486.68 1136.61 1452.88 1141.81 1417.93C1148.24 1374.72 1147.89 1335.14 1141.55 1290.49C1130.8 1214.89 1053.01 1170.03 977.894 1186.83L919.651 1199.86C880.123 1208.7 840.135 1186.99 826.011 1149.03L818.855 1129.8C807.693 1099.79 773.612 1085.33 744.279 1098.15ZM740.52 1186.56C744.328 1172.51 754.29 1160.94 767.616 1155.09C792.979 1143.95 822.485 1156.48 832.095 1182.46L837.453 1196.95C847.332 1223.66 875.466 1238.92 903.244 1232.64L948.178 1222.48C1008.34 1208.88 1071.59 1244.77 1080.18 1306.48C1085.02 1341.27 1085.2 1372.25 1080.05 1406.09C1075.86 1433.58 1064.34 1460.65 1042.88 1479.03C1002.99 1513.21 956.072 1518.26 910.015 1508.49C864.043 1498.75 818.704 1474.22 781.41 1448.91C720.41 1407.51 701.606 1330.12 720.728 1259.58L740.52 1186.56ZM769.981 1160.47C758.283 1165.61 749.538 1175.77 746.195 1188.1L726.405 1261.12C707.768 1329.87 726.283 1404.39 784.711 1444.04C821.73 1469.17 866.335 1493.22 911.233 1502.74C956.044 1512.24 1000.93 1507.23 1039.06 1474.56C1059.13 1457.37 1070.19 1431.78 1074.23 1405.21C1079.29 1371.98 1079.12 1341.57 1074.36 1307.29C1066.33 1249.59 1006.9 1215.24 949.475 1228.22L904.541 1238.38C873.888 1245.31 842.841 1228.46 831.939 1198.99L826.58 1184.5C818.145 1161.69 792.244 1150.7 769.981 1160.47ZM756.612 1221.31C759.699 1210.01 767.714 1200.71 778.43 1195.99C798.961 1186.93 822.876 1197.09 830.622 1218.15L834.772 1229.43C842.463 1250.34 864.489 1262.29 886.211 1257.33L922.035 1249.15C970.118 1238.17 1020.85 1266.88 1027.59 1316.37C1031.37 1344.09 1031.43 1368.8 1027.23 1395.81C1023.84 1417.6 1014.67 1439.08 997.628 1453.77C965.755 1481.23 928.324 1485.46 891.65 1477.87C855.064 1470.29 819.02 1450.93 789.366 1430.9C740.334 1397.78 725.366 1335.66 740.794 1279.2L756.612 1221.31ZM780.802 1201.37C771.707 1205.38 764.905 1213.27 762.284 1222.86L746.467 1280.75C731.527 1335.42 746.216 1394.66 792.659 1426.03C822.034 1445.87 857.338 1464.76 892.843 1472.11C928.259 1479.44 963.663 1475.27 993.788 1449.31C1009.46 1435.8 1018.18 1415.78 1021.42 1394.9C1025.52 1368.5 1025.47 1344.37 1021.77 1317.17C1015.57 1271.7 968.69 1244.53 923.344 1254.88L887.52 1263.06C862.916 1268.68 837.966 1255.15 829.254 1231.46L825.102 1220.17C818.526 1202.3 798.228 1193.68 780.802 1201.37ZM783.58 1269.43C785.712 1261.57 791.288 1255.09 798.745 1251.82C812.946 1245.58 829.468 1252.59 834.847 1267.14L837.685 1274.82C842.689 1288.36 856.948 1296.1 871.023 1292.91L894.895 1287.51C927.488 1280.14 961.987 1299.56 966.67 1333.27C969.253 1351.87 969.343 1368.46 966.58 1386.58C964.323 1401.39 958.096 1416.1 946.384 1426.14C924.783 1444.66 899.392 1447.36 874.641 1442.12C849.976 1436.9 825.727 1423.78 805.855 1410.3C772.836 1387.9 762.782 1346.1 773.062 1308.2L783.58 1269.43ZM801.109 1257.2C795.28 1259.76 790.921 1264.82 789.255 1270.97L778.737 1309.74C768.942 1345.85 778.71 1384.78 809.154 1405.43C828.75 1418.72 852.266 1431.38 875.856 1436.37C899.361 1441.34 922.72 1438.68 942.559 1421.67C952.886 1412.82 958.65 1399.59 960.767 1385.7C963.436 1368.19 963.359 1352.17 960.847 1334.08C956.722 1304.38 926.054 1286.49 896.195 1293.24L872.321 1298.65C855.369 1302.48 838.198 1293.16 832.171 1276.86L829.33 1269.18C825.126 1257.81 812.21 1252.33 801.109 1257.2Z" fill="#E0F146"/>
</svg>
